<svg xmlns="http://www.w3.org/2000/svg" viewBox="0 0 480 480" stroke-width="32" stroke="currentColor" fill="none" >
<path d="M 124 72 C 100.804 72 82 90.804 82 114 L 82 177 C 82 211.794 63.196 240 40 240 C 63.196 240 82 268.206 82 303 L 82 366 C 82 389.196 100.804 408 124 408"></path>
<path d="M 344 72 C 367.196 72 386 90.804 386 114 L 386 177 C 386 211.794 404.804 240 428 240 C 404.804 240 386 268.206 386 303 L 386 366 C 386 389.196 367.196 408 344 408"></path>
<path d="M 208 72 C 184.804 72 166 90.804 166 114 L 166 177 C 166 211.794 147.196 240 124 240 C 147.196 240 166 268.206 166 303 L 166 366 C 166 389.196 184.804 408 208 408"></path>
<path d="M 259 72 C 282.196 72 301 90.804 301 114 L 301 177 C 301 211.794 319.804 240 343 240 C 319.804 240 301 268.206 301 303 L 301 366 C 301 389.196 282.196 408 259 408"></path>
</svg>